<?xml version="1.0"?>
<svg xmlns="http://www.w3.org/2000/svg" xmlns:xlink="http://www.w3.org/1999/xlink" version="1.1" viewBox="0 0 224 224" width="64px" height="64px"><g fill="none" fill-rule="nonzero" stroke="none" stroke-width="1" stroke-linecap="butt" stroke-linejoin="miter" stroke-miterlimit="10" stroke-dasharray="" stroke-dashoffset="0" font-family="none" font-weight="none" font-size="none" text-anchor="none" style="mix-blend-mode: normal"><path d="M0,224v-224h224v224z" fill="none"/><g id="original-icon" fill="#2ecc71"><g id="surface1"><path d="M112,7c-15.75,0 -30.02344,8.75 -37.22852,22.54492c-3.24023,-1.02539 -6.58984,-1.54492 -10.02148,-1.54492c-16.47461,0 -30.31055,12.0586 -32.83984,28h-0.41016c-5.7832,0 -10.5,4.7168 -10.5,10.5v98c0,5.7832 4.7168,10.5 10.5,10.5h17.5v38.5c0,1.92773 -1.57227,3.5 -3.5,3.5c-1.92773,0 -3.5,1.5586 -3.5,3.5c0,1.94141 1.57227,3.5 3.5,3.5c5.7832,0 10.5,-4.7168 10.5,-10.5v-38.5h14v38.5c0,1.92773 -1.57227,3.5 -3.5,3.5c-1.92773,0 -3.5,1.5586 -3.5,3.5c0,1.94141 1.57227,3.5 3.5,3.5c5.7832,0 10.5,-4.7168 10.5,-10.5v-38.5h70v38.5c0,1.92773 -1.57227,3.5 -3.5,3.5c-1.92773,0 -3.5,1.5586 -3.5,3.5c0,1.94141 1.57227,3.5 3.5,3.5c5.7832,0 10.5,-4.7168 10.5,-10.5v-38.5h14v38.5c0,1.92773 -1.57227,3.5 -3.5,3.5c-1.92773,0 -3.5,1.5586 -3.5,3.5c0,1.94141 1.57227,3.5 3.5,3.5c5.7832,0 10.5,-4.7168 10.5,-10.5v-38.5h17.5c5.7832,0 10.5,-4.7168 10.5,-10.5v-98c0,-5.7832 -4.7168,-10.5 -10.5,-10.5h-0.42383c-2.51562,-15.9414 -16.35156,-28 -32.82617,-28c-3.43164,0 -6.78125,0.51953 -10.02148,1.54492c-7.20508,-13.79492 -21.47852,-22.54492 -37.22852,-22.54492zM112,14c14.06836,0 26.71485,8.36719 32.21094,21.32813c0.36914,0.84766 1.06641,1.53125 1.92773,1.87305c0.875,0.3418 1.83203,0.32813 2.69336,-0.04101c3.30859,-1.43555 6.80859,-2.16016 10.41797,-2.16016c12.61914,0 23.25586,8.96875 25.70313,21h-145.90625c2.44727,-12.03125 13.08398,-21 25.70313,-21c3.60938,0 7.10938,0.72461 10.41797,2.16016c0.86133,0.36914 1.81836,0.38281 2.69336,0.04101c0.86133,-0.3418 1.55859,-1.02539 1.92773,-1.87305c5.4961,-12.96094 18.14258,-21.32812 32.21094,-21.32812zM31.5,63h3.44531c0.04102,0 0.08203,0 0.10938,0c0.01367,0 0,0 0.01367,0h157.43164c1.92773,0 3.5,1.57227 3.5,3.5v98c0,1.92773 -1.57227,3.5 -3.5,3.5h-161c-1.92773,0 -3.5,-1.57227 -3.5,-3.5v-98c0,-1.92773 1.57227,-3.5 3.5,-3.5zM70,105c-5.7832,0 -10.5,4.7168 -10.5,10.5c0,5.7832 4.7168,10.5 10.5,10.5c5.7832,0 10.5,-4.7168 10.5,-10.5c0,-5.7832 -4.7168,-10.5 -10.5,-10.5zM112.05469,105c-5.7832,0 -10.5,4.7168 -10.5,10.5c0,5.7832 4.7168,10.5 10.5,10.5c5.79688,0 10.5,-4.7168 10.5,-10.5c0,-5.7832 -4.70312,-10.5 -10.5,-10.5zM154,105c-5.7832,0 -10.5,4.7168 -10.5,10.5c0,5.7832 4.7168,10.5 10.5,10.5c5.7832,0 10.5,-4.7168 10.5,-10.5c0,-5.7832 -4.7168,-10.5 -10.5,-10.5zM70,111.30273c2.31055,0 4.19727,1.88672 4.19727,4.19727c0,2.31055 -1.88672,4.19727 -4.19727,4.19727c-2.31055,0 -4.19727,-1.88672 -4.19727,-4.19727c0,-2.31055 1.88672,-4.19727 4.19727,-4.19727zM112.05469,111.30273c2.32422,0 4.21094,1.88672 4.21094,4.19727c0,2.31055 -1.88672,4.19727 -4.21094,4.19727c-2.31055,0 -4.19727,-1.88672 -4.19727,-4.19727c0,-2.31055 1.88672,-4.19727 4.19727,-4.19727zM154,111.30273c2.31055,0 4.19727,1.88672 4.19727,4.19727c0,2.31055 -1.88672,4.19727 -4.19727,4.19727c-2.31055,0 -4.19727,-1.88672 -4.19727,-4.19727c0,-2.31055 1.88672,-4.19727 4.19727,-4.19727zM42,147c-1.92773,0 -3.5,1.5586 -3.5,3.5v7c0,1.94141 1.57227,3.5 3.5,3.5c1.92773,0 3.5,-1.55859 3.5,-3.5v-7c0,-1.9414 -1.57227,-3.5 -3.5,-3.5zM59.5,147c-1.92773,0 -3.5,1.5586 -3.5,3.5v7c0,1.94141 1.57227,3.5 3.5,3.5c1.92773,0 3.5,-1.55859 3.5,-3.5v-7c0,-1.9414 -1.57227,-3.5 -3.5,-3.5zM77,147c-1.92773,0 -3.5,1.5586 -3.5,3.5v7c0,1.94141 1.57227,3.5 3.5,3.5c1.92773,0 3.5,-1.55859 3.5,-3.5v-7c0,-1.9414 -1.57227,-3.5 -3.5,-3.5zM94.5,147c-1.92773,0 -3.5,1.5586 -3.5,3.5v7c0,1.94141 1.57227,3.5 3.5,3.5c1.92773,0 3.5,-1.55859 3.5,-3.5v-7c0,-1.9414 -1.57227,-3.5 -3.5,-3.5zM112,147c-1.92773,0 -3.5,1.5586 -3.5,3.5v7c0,1.94141 1.57227,3.5 3.5,3.5c1.92773,0 3.5,-1.55859 3.5,-3.5v-7c0,-1.9414 -1.57227,-3.5 -3.5,-3.5zM129.5,147c-1.92773,0 -3.5,1.5586 -3.5,3.5v7c0,1.94141 1.57227,3.5 3.5,3.5c1.92773,0 3.5,-1.55859 3.5,-3.5v-7c0,-1.9414 -1.57227,-3.5 -3.5,-3.5zM147,147c-1.92773,0 -3.5,1.5586 -3.5,3.5v7c0,1.94141 1.57227,3.5 3.5,3.5c1.92773,0 3.5,-1.55859 3.5,-3.5v-7c0,-1.9414 -1.57227,-3.5 -3.5,-3.5zM164.5,147c-1.92773,0 -3.5,1.5586 -3.5,3.5v7c0,1.94141 1.57227,3.5 3.5,3.5c1.92773,0 3.5,-1.55859 3.5,-3.5v-7c0,-1.9414 -1.57227,-3.5 -3.5,-3.5zM182,147c-1.92773,0 -3.5,1.5586 -3.5,3.5v7c0,1.94141 1.57227,3.5 3.5,3.5c1.92773,0 3.5,-1.55859 3.5,-3.5v-7c0,-1.9414 -1.57227,-3.5 -3.5,-3.5z"/></g></g></g></svg>
